<svg width="24" height="20" viewBox="0 0 24 20" fill="none" xmlns="http://www.w3.org/2000/svg">
<path d="M0.36252 9.24572C2.81779 7.89329 5.55853 6.76454 8.11934 5.63002C12.5249 3.77177 16.948 1.94572 21.4157 0.245689C22.2849 -0.0439795 23.8469 -0.327171 24 0.961023C23.916 2.78445 23.5712 4.59719 23.3345 6.40994C22.734 10.3963 22.0397 14.3691 21.3629 18.3424C21.1296 19.6657 19.4717 20.351 18.4109 19.504C15.8615 17.7818 13.2924 16.0766 10.7755 14.3145C9.95116 13.4768 10.7157 12.2737 11.4518 11.6754C13.5516 9.6061 15.7785 7.84796 17.7685 5.67168C18.3053 4.37543 16.7193 5.46795 16.1961 5.80277C13.3215 7.78372 10.5172 9.88562 7.48644 11.6266C5.93833 12.4788 4.13399 11.7505 2.58658 11.2748C1.19915 10.7005 -0.83396 10.1217 0.362345 9.24589L0.36252 9.24572Z" fill="white"/>
</svg>
